<svg xmlns="http://www.w3.org/2000/svg" height="24" viewBox="0 -960 960 960" width="24"><path d="m207.539-511.308 97.999 41.462q18.616-37.231 40.539-72.077 21.923-34.846 48.384-67.769l-61.384-11.77q-6.154-1.538-11.923.385t-10.385 6.538l-103.23 103.231Zm129.692 66.846 113.231 113q47.384-21.384 95.384-54.384t92.308-77.308q64.615-64.615 98.731-137.808Q771-674.154 775.231-770q-95.846 4.231-168.769 38.346-72.923 34.115-137.539 98.731-44.307 44.307-77.307 92.692-33 48.385-54.385 95.769Zm207.231-95q-17.616-17.615-17.616-42.269T544.462-624q17.615-17.616 42.769-17.616T630-624q17.616 17.615 17.616 42.269T630-539.462q-17.615 17.616-42.769 17.616t-42.769-17.616Zm-27.923 337.923 103.23-103.23q4.616-4.616 6.539-10.385t.384-11.923l-11.769-61.384Q582-362 547.154-340.192q-34.846 21.807-72.077 40.423l41.462 98.23Zm296.077-605.308q6.692 110.231-31.192 202.808-37.885 92.577-118.039 172.731l-6.923 6.923-6.923 6.923 16.154 82.077q3.23 16.154-1.231 31.308-4.462 15.154-16.154 26.846L502.616-132.307l-66.308-156.231-142.539-142.539-156.231-67.077 144.693-144.923q11.692-11.693 26.961-16.539 15.269-4.846 31.423-1.615l83.616 16.923q3.846-3.846 6.538-6.923t6.539-6.923q80.154-80.154 172.615-117.77 92.462-37.615 202.693-30.923ZM204.692-313.308q23.462-23.461 57.039-23.192 33.577.269 57.038 23.731 23.462 23.461 23.347 57.038-.116 33.577-23.577 57.039-20.385 20.385-65.424 34.923-45.038 14.539-104.192 20.077 5.538-59.154 20.461-104.193 14.923-45.038 35.308-65.423Zm28.539 29.077q-11.539 11.539-21.539 37.654-10 26.116-13.231 53.885 27.77-3.231 53.885-13.5T290-228q12-12 12.231-28.615.23-16.616-11.77-28.616t-28.615-11.5q-16.615.5-28.615 12.5Z"/></svg>